<svg width="30" height="31" viewBox="0 0 30 31" fill="none" xmlns="http://www.w3.org/2000/svg">
<path d="M6.25 17.52V6.27002H28.75L25 17.52H6.25Z" fill="#E8E8E8"/>
<path d="M4.65523 6.59677L0 2.01832L2.03119 0.0200195L6.68498 4.59988H28.5644C29.0181 4.59985 29.4451 4.81082 29.716 5.16886C29.9869 5.5269 30.0698 5.98986 29.9396 6.41742L26.4945 17.7153C26.3125 18.3129 25.7534 18.7222 25.1193 18.7222H7.52617V21.5466H23.3163V24.3711H6.0907C5.29791 24.3711 4.65523 23.7388 4.65523 22.9589V6.59677ZM7.52617 7.42434V15.8977H24.0513L26.6351 7.42434H7.52617ZM6.80843 30.02C5.61925 30.02 4.65523 29.0716 4.65523 27.9017C4.65523 26.7317 5.61925 25.7833 6.80843 25.7833C7.99762 25.7833 8.96164 26.7317 8.96164 27.9017C8.96164 29.0716 7.99762 30.02 6.80843 30.02ZM24.0341 30.02C22.8449 30.02 21.8809 29.0716 21.8809 27.9017C21.8809 26.7317 22.8449 25.7833 24.0341 25.7833C25.2233 25.7833 26.1873 26.7317 26.1873 27.9017C26.1873 29.0716 25.2233 30.02 24.0341 30.02Z" fill="#929292"/>
</svg>
