<svg xmlns="http://www.w3.org/2000/svg" width="18" height="18" viewBox="0 0 18 18"><title>b-icon</title><path d="M12,0a.9.9,0,0,1,.9.9v.9h4.3V6.9H15.4l2.4,6.5a3.4,3.4,0,1,1-6.5,2.1H7.6a3.4,3.4,0,0,1-6.7-.2A1.7,1.7,0,0,1,0,13.7V5.1a.9.9,0,0,1,.9-.9h6a.9.9,0,0,1,.9.9V9.4a.9.9,0,0,0,.9.9h1.7a.9.9,0,0,0,.9-.9V1.7H8.6V0ZM4.3,12.9A1.7,1.7,0,1,0,6,14.6,1.7,1.7,0,0,0,4.3,12.9Zm10.3,0A1.7,1.7,0,1,0,16.2,14h0A1.7,1.7,0,0,0,14.6,12.9Zm-1-6h-.7V9.4A2.6,2.6,0,0,1,10.3,12H8.6A2.6,2.6,0,0,1,6,9.4H1.7v2.9a3.4,3.4,0,0,1,5.9,1.4h3.6a3.4,3.4,0,0,1,3.3-2.6h.6ZM6,6H1.7V7.7H6Zm9.4-2.6H12.9V5.1h2.6Z" style="fill:#303030"/></svg>