<svg width="30" height="31" viewBox="0 0 30 31" fill="none" xmlns="http://www.w3.org/2000/svg">
<path d="M14.9995 28L3.0229 16.4742C0.182499 13.2542 0.331034 8.42421 3.48284 5.38978C4.99427 3.93528 7.02129 3.08456 9.15727 3.00828C11.2933 2.932 13.3802 3.6358 14.9995 4.97851C16.6171 3.6358 18.7023 2.931 20.8371 3.00533C22.9719 3.07966 24.9987 3.92763 26.5113 5.37932C28.0239 6.83101 28.9105 8.77917 28.9936 10.8334C29.0766 12.8877 28.35 14.8962 26.9592 16.4567L14.9995 28Z" fill="#E8E8E8"/>
<path d="M14.9995 29L2.1674 16.5521C-0.875894 13.0745 -0.716749 7.85814 2.66019 4.58096C4.27957 3.0101 6.45138 2.09132 8.73993 2.00894C11.0285 1.92656 13.2645 2.68667 14.9995 4.13679C16.7327 2.68667 18.9667 1.92548 21.254 2.00576C23.5413 2.08604 25.7129 3.00184 27.3335 4.56967C28.9541 6.13749 29.9041 8.2415 29.9931 10.4601C30.0821 12.6787 29.3035 14.8479 27.8134 16.5332L14.9995 29ZM25.6957 14.7687C26.7271 13.6019 27.2659 12.1001 27.2041 10.5643C27.1424 9.02839 26.4846 7.5719 25.3626 6.4866C24.2407 5.40131 22.7374 4.76737 21.1539 4.71182C19.5705 4.65627 18.0239 5.18321 16.824 6.18705L14.9995 7.7146L13.1749 6.18705C11.975 5.18321 10.4284 4.65627 8.84501 4.71182C7.26158 4.76737 5.75827 5.40131 4.6363 6.4866C3.51432 7.5719 2.85656 9.02839 2.79481 10.5643C2.73305 12.1001 3.27186 13.6019 4.30328 14.7687L4.46243 14.9474L14.9995 25.1703L25.5365 14.9474L25.6957 14.7687Z" fill="#838383"/>
</svg>
