<svg xmlns="http://www.w3.org/2000/svg" width="18" height="16" viewBox="0 0 18 16"><title>g-icon</title><path d="M11.5,0a3.3,3.3,0,0,1,2.8,1.7,3.5,3.5,0,0,1,0,3.4H18V6.7H16.4v8.4a.8.8,0,0,1-.8.8H2.5a.8.8,0,0,1-.8-.8V6.7H0V5.1H3.7A3.4,3.4,0,0,1,4.6.6,3.2,3.2,0,0,1,9,1.1,3.2,3.2,0,0,1,11.5,0ZM8.2,6.7H3.3v7.6H8.2Zm6.5,0H9.8v7.6h4.9ZM6.5,1.7A1.7,1.7,0,0,0,4.9,3.3,1.7,1.7,0,0,0,6.4,5H8.2V3.4A1.7,1.7,0,0,0,6.8,1.7H6.5Zm4.9,0A1.7,1.7,0,0,0,9.8,3.2h0V5.1h1.6a1.7,1.7,0,0,0,1.6-1.6h0A1.7,1.7,0,0,0,11.5,1.7Z" style="fill:#303030"/></svg>