<svg width="30" height="31" viewBox="0 0 30 31" fill="none" xmlns="http://www.w3.org/2000/svg">
<g clip-path="url(#clip0_1196_8893)">
<path d="M13.6359 19.793L5.4541 23.8839L6.13592 25.9293L9.54501 28.6566H15.6814L21.1359 27.293L24.545 23.8839L21.1359 21.8384L17.7268 19.793H13.6359Z" fill="#E8E8E8"/>
<path d="M15 30.02C6.7155 30.02 0 23.3045 0 15.02C0 6.73552 6.7155 0.0200195 15 0.0200195C23.2845 0.0200195 30 6.73552 30 15.02C30 23.3045 23.2845 30.02 15 30.02ZM7.5195 24.404C9.64282 26.1016 12.2815 27.0243 15 27.02C17.955 27.02 20.6595 25.952 22.7505 24.182C20.7768 22.1569 18.0678 21.0164 15.24 21.02C12.3061 21.0166 9.50529 22.2443 7.5195 24.404ZM5.424 22.25C7.97209 19.5459 11.5245 18.015 15.24 18.02C18.8199 18.0154 22.2541 19.4372 24.783 21.971C28.3473 16.9545 27.5391 10.0549 22.9121 5.99782C18.285 1.94077 11.3389 2.04141 6.83136 6.23082C2.32379 10.4202 1.71588 17.3404 5.424 22.2515V22.25ZM15 16.52C11.6863 16.52 9 13.8337 9 10.52C9 7.20631 11.6863 4.52002 15 4.52002C18.3137 4.52002 21 7.20631 21 10.52C21 13.8337 18.3137 16.52 15 16.52ZM15 13.52C16.6569 13.52 18 12.1769 18 10.52C18 8.86316 16.6569 7.52002 15 7.52002C13.3431 7.52002 12 8.86316 12 10.52C12 12.1769 13.3431 13.52 15 13.52Z" fill="#929292"/>
</g>
<defs>
<clipPath id="clip0_1196_8893">
<rect width="30" height="30" fill="white" transform="translate(0 0.0200195)"/>
</clipPath>
</defs>
</svg>
